<svg width="96" height="96" fill="none" xmlns="http://www.w3.org/2000/svg"><g clip-path="url(#a)"><path d="M76 12H59.28C57.6 7.36 53.2 4 48 4c-5.2 0-9.6 3.36-11.28 8H20c-4.4 0-8 3.6-8 8v56c0 4.4 3.6 8 8 8h56c4.4 0 8-3.6 8-8V20c0-4.4-3.6-8-8-8Zm-28 0c2.2 0 4 1.8 4 4s-1.8 4-4 4-4-1.8-4-4 1.8-4 4-4Zm0 16c6.64 0 12 5.36 12 12s-5.36 12-12 12-12-5.36-12-12 5.36-12 12-12Zm24 48H24v-5.6c0-8 16-12.4 24-12.4s24 4.4 24 12.4V76Z" fill="#C8B6FF"/></g><defs><clipPath id="a"><path fill="#fff" d="M0 0h96v96H0z"/></clipPath></defs></svg>